<svg width="209" height="68" viewBox="0 0 209 68" fill="none" xmlns="http://www.w3.org/2000/svg">
<path d="M74.68 31.4C73.88 31.4 73.24 31.1867 72.76 30.76C72.28 30.3333 72.04 29.7467 72.04 29V13.92C72.04 10.3733 73.1467 7.6 75.36 5.6C77.5733 3.6 80.64 2.6 84.56 2.6C88.48 2.6 91.5467 3.6 93.76 5.6C95.9733 7.6 97.08 10.3733 97.08 13.92V29C97.08 29.7467 96.84 30.3333 96.36 30.76C95.88 31.1867 95.24 31.4 94.44 31.4C93.64 31.4 92.9867 31.1867 92.48 30.76C92 30.3067 91.76 29.72 91.76 29V13.8C91.76 11.5333 91.1467 9.8 89.92 8.6C88.6933 7.4 86.9067 6.8 84.56 6.8C82.2133 6.8 80.4267 7.4 79.2 8.6C77.9733 9.8 77.36 11.5333 77.36 13.8V29C77.36 29.72 77.1067 30.3067 76.6 30.76C76.12 31.1867 75.48 31.4 74.68 31.4ZM117.286 31.4C114.166 31.4 111.473 30.8 109.206 29.6C106.966 28.3733 105.259 26.68 104.086 24.52C102.913 22.3333 102.326 19.8267 102.326 17C102.326 14.1733 102.913 11.68 104.086 9.52C105.259 7.33333 106.966 5.64 109.206 4.44C111.473 3.21333 114.166 2.6 117.286 2.6C120.406 2.6 123.086 3.21333 125.326 4.44C127.593 5.64 129.313 7.33333 130.486 9.52C131.659 11.68 132.246 14.1733 132.246 17C132.246 19.8267 131.659 22.3333 130.486 24.52C129.313 26.68 127.593 28.3733 125.326 29.6C123.086 30.8 120.406 31.4 117.286 31.4ZM117.286 27.2C120.326 27.2 122.686 26.2933 124.366 24.48C126.046 22.64 126.886 20.1467 126.886 17C126.886 13.8267 126.006 11.3333 124.246 9.52C122.513 7.70667 120.059 6.8 116.886 6.8C113.979 6.8 111.713 7.73333 110.086 9.6C108.486 11.44 107.686 13.9067 107.686 17C107.686 20.1467 108.526 22.64 110.206 24.48C111.886 26.2933 114.246 27.2 117.286 27.2ZM81.36 64.4C79.8667 64.4 78.6667 63.9467 77.76 63.04C76.88 62.1067 76.2533 60.6533 75.88 58.68L71.92 38.32C71.8667 38 71.84 37.7733 71.84 37.64C71.84 36.9733 72.0533 36.4667 72.48 36.12C72.9333 35.7733 73.5467 35.6 74.32 35.6C75.92 35.6 76.8533 36.3067 77.12 37.72L80.92 59.12C81.0267 59.5467 81.12 59.84 81.2 60C81.28 60.1333 81.3867 60.2 81.52 60.2C81.84 60.2 82.04 59.8533 82.12 59.16L84.64 40C84.8267 38.6133 85.3333 37.5333 86.16 36.76C87.0133 35.9867 88.0933 35.6 89.4 35.6C90.7067 35.6 91.7733 35.9867 92.6 36.76C93.4533 37.5333 93.9733 38.6133 94.16 40L96.68 59.16C96.76 59.8533 96.96 60.2 97.28 60.2C97.4133 60.2 97.52 60.1333 97.6 60C97.68 59.84 97.7733 59.5467 97.88 59.12L101.68 37.72C101.947 36.3067 102.88 35.6 104.48 35.6C105.253 35.6 105.853 35.7733 106.28 36.12C106.733 36.4667 106.96 36.9733 106.96 37.64C106.96 37.7733 106.933 38 106.88 38.32L102.92 58.68C102.547 60.6533 101.907 62.1067 101 63.04C100.12 63.9467 98.9333 64.4 97.44 64.4C95.9467 64.4 94.7867 63.9467 93.96 63.04C93.1333 62.1333 92.5867 60.72 92.32 58.8L89.96 40.88C89.9067 40.48 89.84 40.2 89.76 40.04C89.68 39.88 89.56 39.8 89.4 39.8C89.24 39.8 89.12 39.88 89.04 40.04C88.96 40.2 88.8933 40.48 88.84 40.88L86.48 58.8C86.2133 60.72 85.6667 62.1333 84.84 63.04C84.0133 63.9467 82.8533 64.4 81.36 64.4ZM126.973 64.4C123.853 64.4 121.16 63.8 118.893 62.6C116.653 61.3733 114.947 59.68 113.773 57.52C112.6 55.3333 112.013 52.8267 112.013 50C112.013 47.1733 112.6 44.68 113.773 42.52C114.947 40.3333 116.653 38.64 118.893 37.44C121.16 36.2133 123.853 35.6 126.973 35.6C130.093 35.6 132.773 36.2133 135.013 37.44C137.28 38.64 139 40.3333 140.173 42.52C141.347 44.68 141.933 47.1733 141.933 50C141.933 52.8267 141.347 55.3333 140.173 57.52C139 59.68 137.28 61.3733 135.013 62.6C132.773 63.8 130.093 64.4 126.973 64.4ZM126.973 60.2C130.013 60.2 132.373 59.2933 134.053 57.48C135.733 55.64 136.573 53.1467 136.573 50C136.573 46.8267 135.693 44.3333 133.933 42.52C132.2 40.7067 129.747 39.8 126.573 39.8C123.667 39.8 121.4 40.7333 119.773 42.6C118.173 44.44 117.373 46.9067 117.373 50C117.373 53.1467 118.213 55.64 119.893 57.48C121.573 59.2933 123.933 60.2 126.973 60.2Z" fill="#4D8CF0"/>
<path d="M150.904 31.4C149.037 31.4 147.491 30.76 146.264 29.48C145.037 28.1733 143.957 26.0267 143.024 23.04L137.464 5.36C137.357 5.04 137.304 4.70667 137.304 4.36C137.304 3.18667 138.131 2.6 139.784 2.6C140.611 2.6 141.237 2.76 141.664 3.08C142.117 3.4 142.451 3.92 142.664 4.64L148.184 22.64C148.691 24.2667 149.157 25.44 149.584 26.16C150.011 26.88 150.451 27.24 150.904 27.24C151.357 27.24 151.797 26.88 152.224 26.16C152.651 25.44 153.117 24.2667 153.624 22.64L159.144 4.64C159.357 3.92 159.677 3.4 160.104 3.08C160.557 2.76 161.197 2.6 162.024 2.6C163.677 2.6 164.504 3.18667 164.504 4.36C164.504 4.70667 164.451 5.04 164.344 5.36L158.784 23.04C157.851 26.0267 156.771 28.1733 155.544 29.48C154.317 30.76 152.771 31.4 150.904 31.4ZM171.646 31.36C170.846 31.36 170.206 31.1467 169.726 30.72C169.246 30.2933 169.006 29.7067 169.006 28.96V14.96C169.006 11.0933 170.112 8.06667 172.326 5.88C174.539 3.69333 177.619 2.6 181.566 2.6C184.152 2.6 186.392 3.09333 188.286 4.08C190.179 5.06667 191.619 6.49333 192.606 8.36C193.619 10.2267 194.126 12.4267 194.126 14.96V28.96C194.126 29.7067 193.886 30.2933 193.406 30.72C192.926 31.1467 192.286 31.36 191.486 31.36C190.686 31.36 190.032 31.1467 189.526 30.72C189.046 30.2667 188.806 29.68 188.806 28.96V22.44H174.326V28.96C174.326 29.68 174.072 30.2667 173.566 30.72C173.086 31.1467 172.446 31.36 171.646 31.36ZM188.806 18.32V14.84C188.806 12.1733 188.192 10.1733 186.966 8.84C185.766 7.48 183.966 6.8 181.566 6.8C176.739 6.8 174.326 9.48 174.326 14.84V18.32H188.806ZM148.407 41.92C148.407 40.0533 148.941 38.6 150.007 37.56C151.101 36.52 152.607 36 154.527 36H161.647C165.621 36 168.621 36.7733 170.647 38.32C172.674 39.8667 173.687 42.1733 173.687 45.24C173.687 48.0933 172.834 50.32 171.127 51.92C169.447 53.52 167.181 54.32 164.327 54.32L170.407 60.36C170.887 60.84 171.127 61.3867 171.127 62C171.127 62.64 170.847 63.2 170.287 63.68C169.701 64.1333 169.127 64.36 168.567 64.36C167.794 64.36 167.087 64.0133 166.447 63.32L157.807 54.48H153.727V62C153.727 62.7467 153.474 63.3333 152.967 63.76C152.461 64.1867 151.821 64.4 151.047 64.4C150.247 64.4 149.607 64.1867 149.127 63.76C148.647 63.3333 148.407 62.7467 148.407 62V41.92ZM161.487 50.36C163.247 50.36 164.621 50.1867 165.607 49.84C166.594 49.4933 167.287 48.96 167.687 48.24C168.114 47.4933 168.327 46.4933 168.327 45.24C168.327 43.4267 167.767 42.12 166.647 41.32C165.554 40.52 163.834 40.12 161.487 40.12H155.447C154.914 40.12 154.487 40.2933 154.167 40.64C153.874 40.9867 153.727 41.4667 153.727 42.08V50.36H161.487ZM201.742 64.4C200.062 64.4 199.116 63.8133 198.902 62.64C198.396 59.7867 197.396 57.4133 195.902 55.52C194.436 53.6267 192.289 51.9467 189.462 50.48L185.502 53.76V62C185.502 62.72 185.249 63.3067 184.742 63.76C184.262 64.1867 183.622 64.4 182.822 64.4C182.022 64.4 181.382 64.1867 180.902 63.76C180.422 63.3333 180.182 62.7467 180.182 62V38C180.182 37.2533 180.422 36.6667 180.902 36.24C181.382 35.8133 182.022 35.6 182.822 35.6C183.622 35.6 184.262 35.8267 184.742 36.28C185.249 36.7067 185.502 37.28 185.502 38V47.96L198.862 36.32C199.342 35.8667 199.902 35.64 200.542 35.64C201.182 35.64 201.742 35.8933 202.222 36.4C202.729 36.96 202.982 37.48 202.982 37.96C202.982 38.52 202.662 39.08 202.022 39.64L192.822 47.64C196.022 49.0267 198.569 50.9867 200.462 53.52C202.382 56.0267 203.529 58.8 203.902 61.84C203.982 62.5333 203.809 63.1333 203.382 63.64C202.956 64.1467 202.409 64.4 201.742 64.4Z" fill="white"/>
<rect x="5" y="9" width="47.6471" height="50" stroke="#4D8CF0" stroke-width="10"/>
<path d="M49.6982 59H7.94922L28.8232 15.5459L49.6982 59Z" stroke="#4D8CF0" stroke-width="10"/>
</svg>
